<svg width="18" height="20" viewBox="0 0 18 20" fill="none" xmlns="http://www.w3.org/2000/svg">
<g filter="url(#filter0_d_1_385)">
<path d="M4 1.25H14C14.3315 1.25 14.6495 1.3817 14.8839 1.61612C15.1183 1.85054 15.25 2.16848 15.25 2.5V18.75L9 15.625L2.75 18.75V2.5C2.75 2.16848 2.8817 1.85054 3.11612 1.61612C3.35054 1.3817 3.66848 1.25 4 1.25Z" fill="#191F28"/>
<path d="M4 1.25H14C14.3315 1.25 14.6495 1.3817 14.8839 1.61612C15.1183 1.85054 15.25 2.16848 15.25 2.5V18.75L9 15.625L2.75 18.75V2.5C2.75 2.16848 2.8817 1.85054 3.11612 1.61612C3.35054 1.3817 3.66848 1.25 4 1.25Z" stroke="#191F28" stroke-width="0.5625"/>
</g>
<defs>
<filter id="filter0_d_1_385" x="0.46875" y="-1.03125" width="17.0625" height="22.2363" filterUnits="userSpaceOnUse" color-interpolation-filters="sRGB">
<feFlood flood-opacity="0" result="BackgroundImageFix"/>
<feColorMatrix in="SourceAlpha" type="matrix" values="0 0 0 0 0 0 0 0 0 0 0 0 0 0 0 0 0 0 127 0" result="hardAlpha"/>
<feOffset/>
<feGaussianBlur stdDeviation="1"/>
<feComposite in2="hardAlpha" operator="out"/>
<feColorMatrix type="matrix" values="0 0 0 0 0 0 0 0 0 0 0 0 0 0 0 0 0 0 0.16 0"/>
<feBlend mode="normal" in2="BackgroundImageFix" result="effect1_dropShadow_1_385"/>
<feBlend mode="normal" in="SourceGraphic" in2="effect1_dropShadow_1_385" result="shape"/>
</filter>
</defs>
</svg>
