<svg width="16" height="16" viewBox="0 0 16 16" fill="none" xmlns="http://www.w3.org/2000/svg">
<path d="M11.4445 6.61853C11.4447 7.57355 11.1615 8.50718 10.6308 9.30136C10.1001 10.0955 9.34565 10.7146 8.46289 11.0802C7.58014 11.4458 6.60874 11.5416 5.67152 11.3554C4.7343 11.1692 3.87338 10.7095 3.19762 10.0342C2.52187 9.35902 2.06164 8.49868 1.87514 7.56203C1.68864 6.62537 1.78425 5.65448 2.14987 4.77214C2.51549 3.88979 3.13471 3.13563 3.9292 2.60502C4.7237 2.07442 5.65779 1.79121 6.61334 1.79121C7.24809 1.78975 7.87687 1.9136 8.4636 2.15566C9.05033 2.39773 9.58344 2.75323 10.0323 3.20177C10.4812 3.6503 10.837 4.18303 11.0794 4.76938C11.3217 5.35572 11.4458 5.98413 11.4445 6.61853V6.61853Z" stroke="#191F28" stroke-width="1.5" stroke-linecap="square"/>
<path d="M13.4445 13.4458L10.0623 10.0655" stroke="#191F28" stroke-width="1.5" stroke-linecap="square"/>
</svg>
