<svg width="20" height="18" viewBox="0 0 20 18" fill="none" xmlns="http://www.w3.org/2000/svg">
<path fill-rule="evenodd" clip-rule="evenodd" d="M1 6C1 4.5 1.5 4 3 4H4.5C5.5 4 5.3 4 6.1 3.2L7.15 1.8C7.52771 1.29639 8.1205 1 8.75 1H11.25C11.8795 1 12.4723 1.29639 12.85 1.8L13.9 3.2C14.7 4 14.5 4 15.5 4H17C18.5 4 19 4.5 19 6V15C19 16.5 18.5 17 17 17H3C1.5 17 1 16.5 1 15V6Z" stroke="#191F28" stroke-width="1.5" stroke-linecap="round" stroke-linejoin="round"/>
<path fill-rule="evenodd" clip-rule="evenodd" d="M10 14C12.2091 14 14 12.2091 14 10C14 7.79086 12.2091 6 10 6C7.79086 6 6 7.79086 6 10C6 12.2091 7.79086 14 10 14Z" stroke="#191F28" stroke-width="1.5" stroke-linecap="round" stroke-linejoin="round"/>
</svg>
