<svg width="100" height="100" viewBox="0 0 24 24" fill="none" xmlns="http://www.w3.org/2000/svg">
<g clip-path="url(#clip0_6_474)">
<path fill-rule="evenodd" clip-rule="evenodd" d="M5 5.5H8.07136L8.81784 4.13036C8.86163 4.05 8.94584 4 9.03735 4H14.9314C15.0229 4 15.1071 4.05 15.1509 4.13036L15.8974 5.5H19C19.4142 5.5 19.75 5.83579 19.75 6.25C19.75 6.66421 19.4142 7 19 7H5C4.58579 7 4.25 6.66421 4.25 6.25C4.25 5.83579 4.58579 5.5 5 5.5ZM6.75 8C7.16421 8 7.5 8.33579 7.5 8.75V9.5V14.4615V17.5C7.5 18.0523 7.94772 18.5 8.5 18.5H15.5C16.0523 18.5 16.5 18.0523 16.5 17.5V14.4615V9.5V8.75C16.5 8.33579 16.8358 8 17.25 8C17.6642 8 18 8.33579 18 8.75V9.5V19C18 19.5523 17.5523 20 17 20H7C6.44772 20 6 19.5523 6 19V9.5V8.75C6 8.33579 6.33579 8 6.75 8Z" fill="#191F28"/>
</g>
<defs>
<clipPath id="clip0_6_474">
<rect width="66" height="66" fill="white"/>
</clipPath>
</defs>
</svg>
