<svg width="32" height="32" viewBox="0 0 32 32" fill="none" xmlns="http://www.w3.org/2000/svg">
<circle cx="16" cy="16" r="16" fill="white"/>
<rect width="16" height="16" transform="matrix(-1 0 0 1 24 8)" fill="white"/>
<path fill-rule="evenodd" clip-rule="evenodd" d="M12.7416 12.4293C12.7415 12.8579 12.8259 13.2822 12.9898 13.6782C13.1538 14.0741 13.3941 14.4339 13.6971 14.737C14.0001 15.04 14.3599 15.2804 14.7558 15.4445C15.1517 15.6085 15.576 15.693 16.0046 15.693C16.87 15.6931 17.7001 15.3494 18.3122 14.7374C18.9242 14.1255 19.2681 13.2955 19.2682 12.43C19.2683 12.0014 19.1839 11.5771 19.0199 11.1811C18.856 10.7852 18.6157 10.4254 18.3127 10.1224C17.7007 9.51032 16.8707 9.16642 16.0052 9.16633C15.1397 9.16624 14.3097 9.50997 13.6976 10.1219C13.0855 10.7338 12.7416 11.5638 12.7416 12.4293ZM16.0049 16.6913C20.7042 16.6913 22.5322 19.682 22.5322 21.0733C22.5322 22.464 18.6409 22.8347 16.0049 22.8347C13.3689 22.8347 9.47756 22.464 9.47756 21.0733C9.47756 19.682 11.3056 16.6913 16.0049 16.6913Z" fill="#ADB5BD"/>
</svg>
