<svg width="32" height="32" viewBox="0 0 32 32" fill="none" xmlns="http://www.w3.org/2000/svg">
<path fill-rule="evenodd" clip-rule="evenodd" d="M19 8C19 5.79086 20.7909 4 23 4C25.2091 4 27 5.79086 27 8C27 10.2091 25.2091 12 23 12C21.6832 12 20.5149 11.3637 19.7861 10.3817L13.8148 14.6469C13.9355 15.0773 14 15.5311 14 16C14 16.4689 13.9355 16.9227 13.8148 17.3531L19.786 21.6183C20.5149 20.6363 21.6832 20 23 20C25.2091 20 27 21.7909 27 24C27 26.2091 25.2091 28 23 28C20.7909 28 19 26.2091 19 24C19 23.8423 19.0091 23.6868 19.0269 23.5338L12.8855 19.1471C11.9688 20.2775 10.5688 21 9 21C6.23858 21 4 18.7614 4 16C4 13.2386 6.23858 11 9 11C10.5688 11 11.9688 11.7225 12.8855 12.8529L19.0269 8.46619C19.0091 8.31326 19 8.15769 19 8ZM23 6C21.8954 6 21 6.89543 21 8C21 9.10457 21.8954 10 23 10C24.1046 10 25 9.10457 25 8C25 6.89543 24.1046 6 23 6ZM9 13C7.34315 13 6 14.3431 6 16C6 17.6569 7.34315 19 9 19C10.6569 19 12 17.6569 12 16C12 14.3431 10.6569 13 9 13ZM21 24C21 22.8954 21.8954 22 23 22C24.1046 22 25 22.8954 25 24C25 25.1046 24.1046 26 23 26C21.8954 26 21 25.1046 21 24Z" fill="#191F28"/>
</svg>
